HIERARCHY
ROOT Hips
{
	OFFSET 0.00000 0.00000 0.00000
	CHANNELS 6 Xposition Yposition Zposition Yrotation Zrotation Xrotation 
	JOINT Lumbar
	{
		OFFSET 0 0 0
		CHANNELS 3 Zrotation Xrotation Yrotation
		JOINT Neck
		{
			OFFSET 0.00 0.2701 0.00
			CHANNELS 3 Zrotation Xrotation Yrotation
			End Site
			{
				OFFSET 0.00 0.1379 0.00
			}
		}
		JOINT RightShoulder
		{
			OFFSET 0.0119 0.2289 0.1181
			CHANNELS 3 Zrotation Xrotation Yrotation
			JOINT RightElbow
			{
				OFFSET 0.00 -0.1475 0.00
				CHANNELS 2 Zrotation Yrotation
				JOINT RightWrist
				{
					OFFSET 0.00 -0.1605 0.00
					CHANNELS 2 Zrotation Xrotation
					End Site
					{
						OFFSET 0.0040 -0.1068 0.0006
					}
				}
			}
		}
		JOINT LeftShoulder
		{
			OFFSET 0.0119 0.2289 -0.1181
			CHANNELS 3 Zrotation Xrotation Yrotation
			JOINT LeftElbow
			{
				OFFSET 0.00 -0.1475 0.00
				CHANNELS 2 Zrotation Yrotation
				JOINT LeftWrist
				{
					OFFSET 0.00 -0.1605 0.00
					CHANNELS 2 Zrotation Xrotation
					End Site
					{
						OFFSET 0.0040 -0.1068 -0.0006
					}
				}
			}
		}
	}
	JOINT RightHip
	{
		OFFSET 0.0316 -0.0424 0.0458
		CHANNELS 3 Zrotation Xrotation Yrotation
		JOINT RightKnee
		{
			OFFSET 0.00 -0.2438 0.00
			CHANNELS 1 Zrotation
			JOINT RightAnkle
			{
				OFFSET 0.00 -0.2449 0.00
				CHANNELS 3 Zrotation Xrotation Yrotation
				End Site
				{
					OFFSET 0.1237 -0.0542 0.0051
				}
			}
		}
	}
	JOINT LeftHip
	{
		OFFSET 0.0316 -0.0424 -0.0458
		CHANNELS 3 Zrotation Xrotation Yrotation
		JOINT LeftKnee
		{
			OFFSET 0.00 -0.2438 0.00
			CHANNELS 1 Zrotation
			JOINT LeftAnkle
			{
				OFFSET 0.00 -0.2449 0.00
				CHANNELS 3 Zrotation Xrotation Yrotation
				End Site
				{
					OFFSET 0.1237 -0.0542 -0.0051
				}
			}
		}
	}
}
MOTION
Frames: 22
Frame Time: 0.02
0.00062 -0.00017 -0.00088 21.62603 -33.15966 -2.58479 54.63542 -0.96774 -2.0802 -9.92757 -1.51385 -0.33717 7.64351 -102.08444 -87.14772 5.78682 55.31006 -19.33591 3.15463 9.90756 106.15763 87.13767 5.78724 -44.38666 -22.88232 -4.73565 44.67461 -1.35099 -3.38089 -18.91395 -7.42246 -3.86613 -4.16656 50.17542 5.45171 12.49553 -24.20829 -7.66988 2.98636 3.75895
0.00143 -7e-05 -0.00012 21.68617 -33.10831 -2.56797 54.63871 -0.98951 -2.08158 -9.90867 -1.5007 -0.33852 7.64526 -102.06302 -87.14749 5.78683 55.32709 -19.32053 3.14809 9.88076 106.09208 87.13767 5.78724 -44.37306 -22.86361 -4.71951 44.56207 -1.34867 -3.91359 -18.92651 -7.38022 -3.82826 -4.14452 50.10595 5.50157 12.31834 -24.23005 -7.69199 3.00269 3.76614
0.00223 3e-05 0.00065 21.74622 -33.05711 -2.55119 54.64194 -1.01123 -2.08295 -9.88974 -1.48756 -0.33985 7.64702 -102.04168 -87.14727 5.78685 55.34412 -19.30528 3.14157 9.85387 106.02669 87.13765 5.78724 -44.35947 -22.84506 -4.70343 44.44994 -1.34628 -4.44512 -18.93911 -7.33808 -3.79048 -4.12253 50.03684 5.55129 12.14103 -24.25184 -7.71411 3.01901 3.77333
0.00304 0.00014 0.0014 21.80619 -33.00591 -2.53442 54.64522 -1.03293 -2.08432 -9.87088 -1.47445 -0.34119 7.64876 -102.02033 -87.14705 5.78686 55.3611 -19.28997 3.13505 9.82714 105.96134 87.13774 5.78724 -44.34589 -22.82645 -4.68734 44.33775 -1.34396 -4.97626 -18.95164 -7.29596 -3.75272 -4.10056 49.96761 5.601 11.96426 -24.27355 -7.73616 3.03529 3.7805
0.00385 0.00024 0.00216 21.86622 -32.95456 -2.51762 54.64857 -1.05468 -2.08571 -9.85207 -1.46132 -0.34253 7.65051 -101.99889 -87.14682 5.78688 55.37806 -19.27445 3.12852 9.80053 105.89586 87.13764 5.78724 -44.33237 -22.80757 -4.67119 44.22517 -1.34173 -5.50836 -18.9641 -7.25376 -3.71489 -4.07854 49.89798 5.65086 11.78794 -24.29518 -7.75818 3.05157 3.78765
0.00465 0.00034 0.00293 21.92629 -32.90367 -2.50088 54.65155 -1.07634 -2.08703 -9.83291 -1.44816 -0.34387 7.65231 -101.97772 -87.1466 5.78689 55.39523 -19.25978 3.12201 9.77305 105.83065 87.13765 5.78724 -44.31867 -22.78968 -4.65525 44.11398 -1.339 -6.03867 -18.97698 -7.21176 -3.67721 -4.05661 49.82998 5.70029 11.60857 -24.31731 -7.78051 3.06799 3.79495
0.00546 0.00044 0.00368 21.98622 -32.85191 -2.48404 54.65527 -1.09814 -2.0885 -9.81447 -1.43509 -0.34521 7.65393 -101.95606 -87.14638 5.78691 55.41196 -19.24348 3.11548 9.74743 105.76496 87.13804 5.78724 -44.3052 -22.77002 -4.63891 44.00007 -1.3373 -6.57203 -18.989 -7.16939 -3.63926 -4.03452 49.75874 5.75047 11.4354 -24.33842 -7.8022 3.08409 3.80194
0.00626 0.00055 0.00444 22.04627 -32.80097 -2.46728 54.6583 -1.11983 -2.08978 -9.79538 -1.42195 -0.34655 7.65586 -101.93481 -87.14615 5.78692 55.42911 -19.2286 3.10894 9.71993 105.69975 87.13698 5.78724 -44.29178 -22.7516 -4.62295 43.88875 -1.3346 -7.10251 -19.00183 -7.12736 -3.60157 -4.01258 49.69054 5.80007 11.25676 -24.36046 -7.82447 3.10048 3.8092
0.00706 0.00065 0.00522 22.10654 -32.75091 -2.45064 54.66051 -1.14133 -2.09106 -9.77542 -1.40866 -0.34788 7.65761 -101.91423 -87.14596 5.78694 55.44674 -19.21576 3.10246 9.69074 105.63493 87.13853 5.78724 -44.27737 -22.73629 -4.60741 43.78024 -1.33085 -7.63003 -19.01561 -7.08571 -3.56415 -3.9908 49.62587 5.84856 11.07026 -24.38372 -7.84749 3.11729 3.81685
0.00792 0.00076 0.00592 22.16576 -32.69541 -2.43338 54.66755 -1.16375 -2.09304 -9.76024 -1.39601 -0.34923 7.65869 -101.89031 -87.14567 5.78696 55.46149 -19.19209 3.09587 9.67313 105.56725 87.13821 5.78724 -44.2655 -22.70788 -4.5893 43.65448 -1.33367 -8.17629 -19.02381 -7.04179 -3.52504 -3.96806 49.54031 5.90224 10.92543 -24.40021 -7.86631 3.13189 3.82245
0.00863 0.00084 0.00677 22.22703 -32.65164 -2.4174 54.66431 -1.18434 -2.09309 -9.73513 -1.38215 -0.35056 7.66226 -101.87311 -87.14551 5.78697 55.48238 -19.19069 3.08937 9.62991 105.50605 87.13345 5.78724 -44.25028 -22.70401 -4.5767 43.5658 -1.32231 -8.68185 -19.04383 -7.00274 -3.48959 -3.94737 49.49921 5.94569 10.69505 -24.4308 -7.89393 3.15103 3.83225
0.00895 0.00086 0.00801 22.29553 -32.63843 -2.40508 54.63314 -1.19893 -2.09169 -9.68116 -1.36389 -0.35169 7.66628 -101.87656 -87.14577 5.78694 55.52014 -19.25573 3.08424 9.52626 105.46016 87.14778 5.78724 -44.22322 -22.7836 -4.57727 43.57465 -1.27429 -9.08469 -19.09657 -6.97649 -3.46362 -3.93191 49.57827 5.95488 10.20735 -24.50213 -7.94644 3.18379 3.85463
0.00911 0.00084 0.00939 22.36583 -32.63731 -2.39403 54.5915 -1.21187 -2.08771 -9.61754 -1.34468 -0.35287 7.67552 -101.88598 -87.14574 5.78697 55.56429 -19.34205 3.0789 9.39582 105.42197 87.12605 5.78724 -44.20285 -22.87794 -4.58269 43.62175 -1.21168 -9.44517 -19.16137 -6.95526 -3.44145 -3.91856 49.70245 5.95486 9.63759 -24.58728 -8.0077 3.22091 3.88104
0.00935 0.00084 0.01071 22.43419 -32.63174 -2.38229 54.55464 -1.2262 -2.08236 -9.55937 -1.32651 -0.35401 7.68458 -101.89168 -87.14636 5.78689 55.60522 -19.41529 3.073 9.2702 105.38093 87.13334 5.78724 -44.16896 -22.96377 -4.5885 43.65383 -1.15416 -9.81899 -19.22014 -6.9321 -3.41792 -3.90451 49.807 5.96321 9.12053 -24.66474 -8.06443 3.25527 3.90489
0.0096 0.00085 0.01199 22.50711 -32.62179 -2.37099 54.51813 -1.23781 -2.08749 -9.49663 -1.30544 -0.35494 7.67807 -101.90311 -87.14653 5.78689 55.64657 -19.50339 3.0702 9.17239 105.33417 87.19338 5.78724 -44.14002 -23.08559 -4.58769 43.67507 -1.10282 -10.21703 -19.28022 -6.90744 -3.39286 -3.8894 49.90738 5.95423 8.53963 -24.74803 -8.12336 3.29289 3.93176
0.00977 0.00083 0.0134 22.57117 -32.62382 -2.35911 54.47781 -1.25469 -2.07048 -9.44119 -1.29059 -0.35668 7.71314 -101.90218 -87.1454 5.78709 55.68974 -19.56505 3.0605 9.01432 105.30491 87.00191 5.78724 -44.15165 -23.10042 -4.59643 43.7291 -1.03553 -10.5554 -19.34175 -6.88714 -3.37188 -3.87698 50.02784 5.97872 8.07055 -24.82262 -8.17998 3.32481 3.95336
0.00979 0.00076 0.01514 22.60868 -32.65591 -2.34483 54.4343 -1.28661 -1.99026 -9.40777 -1.28975 -0.35775 7.83534 -101.87447 -87.14933 5.78645 55.73226 -19.54772 3.03302 8.6606 105.28793 87.30735 5.78724 -43.83556 -23.13195 -4.67813 43.85483 -0.92496 -10.73264 -19.39398 -6.87698 -3.36132 -3.8716 50.18714 6.10175 7.94579 -24.86922 -8.22609 3.33932 3.95875
0.00972 0.00067 0.01702 22.63755 -32.69958 -2.32995 54.38618 -1.32388 -1.88833 -9.38222 -1.29589 -0.36023 8.03261 -101.82776 -87.14344 5.78741 55.7814 -19.49961 2.9969 8.25287 105.29329 87.17103 5.78724 -43.63054 -23.00478 -4.76151 44.01427 -0.79961 -10.85281 -19.44978 -6.87111 -3.35468 -3.86881 50.36641 6.25808 7.93389 -24.90722 -8.2699 3.34801 3.95881
0.00967 0.00058 0.01885 22.67142 -32.73813 -2.31574 54.33734 -1.35861 -1.79812 -9.35327 -1.30098 -0.36388 8.17668 -101.78989 -87.14528 5.78711 55.82479 -19.47059 2.96581 7.8946 105.31254 86.42213 5.78724 -43.67636 -22.73242 -4.81132 44.16411 -0.6826 -11.0032 -19.50999 -6.86376 -3.34627 -3.86476 50.53982 6.39664 7.85974 -24.94893 -8.3161 3.35977 3.96179
0.00971 0.0005 0.02064 22.70069 -32.77687 -2.30015 54.301 -1.39368 -1.70004 -9.32286 -1.29686 -0.35965 8.28463 -101.77059 -87.16184 5.7844 55.8625 -19.43535 2.93609 7.43424 105.2362 88.97876 5.78724 -42.49682 -23.34328 -4.99503 44.28995 -0.55728 -11.13296 -19.54273 -6.85478 -3.33817 -3.86122 50.70007 6.54599 7.82753 -24.9899 -8.35708 3.37 3.96289
0.00954 0.00041 0.02253 22.73765 -32.81732 -2.28697 54.23644 -1.42939 -1.61319 -9.29795 -1.31385 -0.37248 8.63215 -101.68391 -87.10961 5.79295 55.93545 -19.38719 2.8939 7.16896 105.35712 84.70534 5.78723 -43.83743 -22.12022 -4.90615 44.4748 -0.44716 -11.29403 -19.63641 -6.84995 -3.33004 -3.85711 50.89333 6.6809 7.73767 -25.03277 -8.40808 3.38184 3.9665
0.00886 0.00029 0.02462 22.79611 -32.86335 -2.28322 54.10515 -1.46502 -1.56282 -9.28226 -1.38513 -0.42932 8.31547 -101.63146 -87.19224 5.77941 55.90933 -19.4727 2.88691 7.49746 106.07716 60.30032 5.78718 -52.61474 -15.49539 -4.01245 44.80136 -0.37217 -11.54325 -19.87246 -6.85723 -3.32319 -3.85169 51.16073 6.768 7.44557 -25.06242 -8.48866 3.40085 3.97899
